<?xml version="1.0" encoding="UTF-8"?>
<svg version="1.1" viewBox="0 0 2000 2000" width="500" height="500" xmlns="http://www.w3.org/2000/svg">
<path transform="translate(1658,567)" d="m0 0 4 1 7 8 7 9 8 11 9 12 9 6 16 8 15 7 11 5 8 2 4 2 3 5-1 5-8 9-6 11 1 5 5 4 15 9 15 10 12 9 10 9 8 8 11 15 10 21 7 22 1 5v24l-6 25-6 18-10 21-13 20-20 28-6 7h-2l-2 4-29 29-8 7-13 11-11 9-12 10-28 21-19 13-13 9-19 12-26 16-23 13-23 12-22 12-42 22-24 12-20 9-27 11-30 13-25 10-48 19-30 11-37 12-20 7-36 11-54 15-29 8-44 10-38 8-55 13-26 6-17 2-28 6-3 3-4 16-8 7-10 4-16 5-3 6v7l5 18v20l-5 5-12 4-26 4-4-2-14-28-5-5-10 2-24 8-5-1-7-5-4-8-8-21-1-3-7-1-16 4-12 5-4 2-5-1-6-5-7-9-3-2h-9l-9 1h-47l-50-1-89-1-7-2-9-1-32-1-6 3-10 11-6 10-6 17v33l-3 9h-3l-6-8-7-11-13-16-14-14-12-6-6-2-14-1-8-2-2-1 1-6 13-13 4-17-2-5-10-5-39-14-25-12-18-10-13-10-12-9-14-14-9-12-6-10-8-24-3-14-1-9v-18l2-16 6-20 6-15 11-20 8-13 14-19 4-5h2l2-4 7-8h2l2-4 23-23 8-7 10-9 14-11 15-12 17-12 13-11 17-12 48-30 19-12 27-16 28-15 19-9 19-10 8-6 6-5-5-5-12-6-4-5-8-19-2-15 3-9 8-18 11-17 5-6 10-6 22-8 4 1 10 6 16 6h8l7-8 14-22 8-9 10-5 7-2h14l16 6 12 7 12 5 6 3 5 7 12 37 2 4 9-2 27-8 51-16 63-18 37-9 96-24 52-12 20-4 34-6 56-9 39-5 52-7 33-3 5-1 78-4 75-1h45l40 1 46 4 28 4 32 5 12 1 2-5 7-21 2-12 1-19 2-13z" fill="#45081C"/>
<path transform="translate(841,788)" d="m0 0h4l6 14 10 28 9-1 24-9 13-4 4 6 10 28 3 9 11-2 28-9 7-1 5 11 20 54 8 20 16 43 1 9-21 9-18 8 1 7 12 37-1 4-21 7-19 7h-3l2 9 12 31 1 8-12 5-25 10-6 1 9 27 6 17-1 5-36 12-7 3 1 7 8 19 5 16v6l-19 7-20 7-3 2 3 14 6 17 4 10-1 5-11 5-26 11-4 1 3 22-3 7-6 2-5 3v2h-4l-4 2-5 5-4 2-2 3-5 2-3-1v-10l-3-1 1-2-2-7-3-2-3-8-16 4h-5l-4 2-1-2-4 3h-4l-4 4-8 1-4-2-1-6h-2v2h-4v-5h2l-4-15-6-14-6 1-9 4-2 2h-8l2 9h-2l-2-7-10 3-5 3-4-1-4-10-9-23-4-5-1-4-7 1-31 12-8 1-3-9-10-26-4-9-5 1-10 5-19 6-8 2-5-1-10-25-5-10-2-6-7 1-20 8-15 5-4-1-10-26-6-16-3-1-23 8-14 6h-5l-5-12-14-36-19-50-9-23-5-16 12-5 28-11h3l-2-9-13-35 1-4 33-13 9-3-4-14-10-30 1-4 19-7 32-12 12-5 21-8 40-15 11-4h2l6 16 10 29 11-3 17-6 16-6 4 1 15 42h4l41-15-3-12-10-28v-7l14-6 25-10 2-7-5-15-6-16-1-9 10-5 27-11 35-13 39-14z" fill="#9A3954"/>
<path transform="translate(791,936)" d="m0 0h4l5 14 3 6 3 3 6-1 14-6h5l7 20 1 3 7-1 16-6 4 1 5 12 13 35 8 22-1 5-20 9-1 4 6 17v5l-21 9-2 1 3 9 3 7 1 9-2 2-14 5-5 3h-2l5 16 2 6v5l-16 6-7 3 1 5 6 14v6l-12 6-10 4 2 9 4 11v6l-10 5-11 4h-2l1 5 5 14v7l-4 3-15 6-4-1-5-17-3-6-9 2-13 5-4-1-6-12-2-11-21 7-6 1-3-4-2-7-3-9-3-3-10 3-10 4h-6l-7-22v-2l-15 4-10 4-4-1-4-12-2-3v-7l-9 2-12 4-2 1h-6l-8-23-7 1-16 6h-3l-5-12-11-30-8-21-4-11 14-6 9-4-1-8-5-14 1-4 19-8h2l-3-16-3-8v-3l48-19 18-7 8-1 4 5 1 8 2 2 2 5 5 1 8-2 11-4 4 4 4 8 5 11 6-1 17-6h3l-7-24v-5l21-7-1-10-4-14v-3l26-10 27-10z" fill="#ECABBC"/>
<path transform="translate(760,1007)" d="m0 0 4 1 3 10 2 4h6l4-2h8l3 4 3 10 7-2 10-4 3 3 9 26 8 22 1 4-9 4-4 1-1 7 1 10-6 5-6 2v8l1 3v7l-5 5-7 2v8l2 7v4l-13 6h-2l4 16-2 4-10 3h-2l2 14v5l-4 3-9 3-4-2-3-5v-4l-11-2-7 3-4-1-3-8-5-6-7 1-5 2h-4l-3-6-2-7h-11l-8 1-4-5-1-7-6-1-3 1h-7l-5-2-3-5-2-5h-6l-8 3-5-1-3-4-10-30-6-16 8-5 6-4 1-3-3-10 1-5 12-6-1-12-1-5 5-3 19-7 10-1 4 4 5 8 8-1 4-2 4 1 8 12 1 1h12l1-9-2-11 4-4 9-3 1-5-3-10 1-4 12-6 17-6z" fill="#480A1E"/>
<path transform="translate(1154,795)" d="m0 0h14l10 3 9 6 8 8 7 12 4 10 3 15 1 10 1 50 2 9 5 8 5 6 9 4 8 6 5 9 1 10-4 6-5 4-9 1-9-3-10-9-8-13-7-14-3-2-5 1-1 2v11l7 27v7l-7 8-7 2h-7l-7-6-7-15-9-29-10-36-7-20-13-25-9-16-2-6v-12l3-6 4-5 13-9 12-5z" fill="#ECABBC"/>
<path transform="translate(1343,731)" d="m0 0h9l9 3 8 6 6 10 5 18 6 33 4 8 6 7 8 13 5 11 6 17 3 16v14l-4 12-8 11-10 7-11 5-9 2h-11l-13-4-6-5-4-15-3-25-6-21-11-33-9-19-7-11-5-7-5-11-1-3v-18l4-5 12-4 10-4 4-3 13-4z" fill="#ECABBC"/>
<path transform="translate(1267,756)" d="m0 0 7 1 6 4 6 8 8 23 7 30 6 21 14 41 8 29 3 15v8l-5 3-19 5-20 6h-10l-13-5-9-6-6-7-6-12-7-21-8-29-6-16-13-33-5-18-1-13 3-10 7-6 2-1h9l5 4 5 10 8 45 7 25 13 38 8 18 7 8 4 1h11l4-4 2-6v-11l-4-17-10-28-16-41-11-28-3-10v-11l4-6 4-3z" fill="#ECABBC"/>
<path transform="translate(1451,694)" d="m0 0h9l6 4 6 10 3 8 4 22 4 26 11 42 3 15 1 11v20l-4 16-6 10-5 6-11 7-10 4-10 1-7-3-5-5-1-2v-14l2-3 21-7 8-7 3-8-1-10-4-7-5-4-27-9-12-6-9-8-6-10-7-15-8-17-8-14-5-14v-7l3-6 7-5 3-1h7l6 4 5 8 6 20 7 23 7 14 9 10 6 3 9 1 8-2v-12l-5-21-6-18-9-20-3-9v-10l4-7z" fill="#ECABBC"/>
<path transform="translate(1660,582)" d="m0 0 3 3 5 15v15l-3 14 1-3h2l1-9 2-2 1-9v-7l5 5 15 16 8 8 11 7 16 6 5 2 2 3v3l5-1 1 5-3-1-2 6-6 5 1 5-3-1-1 7h3v2h2l-1 5-4 9h-2l-3 10-3 12-3 20v18l1 10-5-5-6-11-10-14-14-15-12-9-19-10-15-5-23-5 1-4 5-5 6-5 13-18 3-1 1-7 2-10 6-16 3-12 2 1 5-10v-10z" fill="#9A3954"/>
<path transform="translate(193,1238)" d="m0 0 4 2 5 6 2 1v2l4 2v2l4 2 10 8 15 10 16 10 15 6 31 13 21 7 7 2 8 1 3-6h2v-5l1-4 1-35-2-2 1-4 4 2 4 9 6 9 8 10 4 4v4l4 1 4 3v2l5 2 5 4 12 5 10 3 12 3 7 2-1 4h-4v2h-2v3l5 2-1 2-6 1-2 6-9 10-6 10-6 17v33l-3 9h-3l-6-8-7-11-13-16-14-14-12-6-6-2-14-1-8-2-2-1 1-6 13-13 4-17-2-5-10-5-39-14-25-12-18-10-13-10-12-9-12-12-1-5z" fill="#86354E"/>
<path transform="translate(1341,730)" d="m0 0h16l11 6 8 6 6 4 4 7 6 23 4 17 2 11 4 9 1 4 3 1 6 9 5 8 9 20 4 12 1 6v22l-3 10-4 7h-2l-2 4h-2v2l-9 6-14 5-13 2-27-8-7-4-4-5-4-18-1-14-4-17-8-26-8-21-8-16-5-6v3l5 13 2 9 7 25 8 25 9 25 2 3 3 15 3 12 2 15-3 5-1 1-15 3-11 4-12 3h-10l-9-2-22-9-3-3 6 2 11 4h10l20-6 21-6 2-1v-8l-5-22-7-25-16-47-5-19-5-23-8-23-7-9-6-3-9 1-5 4-2 4v11l3 10 11 28 6 15-1 3-13-30-4-9-5-14v-15l3-6 7-4 3-1h7l7 4 7 7 3 2 2-5 1-11 2-4 8-4 8-2 10-4 8-4zm2 1-15 4-6 3-9 4-11 4-5 3-2 3v18l4 9 5 10 6 8 9 17 9 24 9 29 3 14 2 19 4 15 8 6 11 3h11l12-3 16-9 7-8 5-10 2-7v-14l-3-16-7-20-9-17-8-10-4-6-3-14-5-27-5-15-6-9-9-6-7-2z" fill="#85354E"/>
<path transform="translate(836,1323)" d="m0 0 2 4 3 11 2 4v4l9-2h5l-2 6-1 2v7l5 18v20l-5 5-12 4-26 4-4-2-14-28-5-5-10 2-24 8-5-1-7-5-4-8-8-21-1-3-5-1v-2l-5-1-1-2h6l6 2v-2h2l2 6 5 1 8-2 2-3 6-1 4-2-1 3 4-3h8l7-3 6-1 3 5 1 4 4 4 1 6-1 1 2 1 1 8-1 2 8-2 2-3 4-2 6-6 5-2v2h2l-1-3 6-3h3l1-2h2l2-7-2-11z" fill="#86364F"/>
<path transform="translate(1217,771)" d="m0 0h8l6 4 5 4 6 3 4 4 5 16 6 36 6 22 12 35 8 24 3 2 7-1 3-3 2-6 1-10h1v11l-3 8-4 3h-11l-5-2-7-8-9-21-12-35-7-25-8-45-5-10-4-3h-9l-8 6-3 10 1 13 6 20 12 31 7 19 1 8-2-3-5-14-1 4 1 15v33l3 12 7 7 15 10 7 8 3 10v5l-5 4-3 3-5 1v2h-8l-4-2-1-2-10-2 4-1 9-1 6-5 2-4-1-10-5-9-10-7-7-3-8-10-3-7-1-6-1-50-2-16-4-15-6-11-6-8-9-8-9-4-5-1h-14l-15 4-6 1 2-2 17-5 11-1 12 2 12 6 9 7 9 11 1 3-1-10-2-12v-15l4-9 4-3z" fill="#85354E"/>
<path transform="translate(1280,973)" d="m0 0h6l4 10 13 41 2 10-1 8-4 8-5 4-7 2h-15l-1 5-8 3h-12l-6-4-6-6-7-20-12-36v-5l8-4h5l6 16 12 36 2 7h10l-3-14-14-44-1-5 9-4h5l5 12 11 35 5 13 7-2v-8l-16-50 1-5z" fill="#ECABBC"/>
<path transform="translate(759,1069)" d="m0 0 5 1 5 12 6 15v5l-13 7v7l1 3v7l-1 3-9 2-2 3v7l1 9-6 5-6 1-4-3-3-8-5-3-7 2-7-1-4-5-2-6-7-1-4 1h-7l-3-3-8-19-1-6 2-4 7-3 5 1 3 4 3 6 1 1h7l8-1 5 3 4 9 10-1 6-2 1-2v-8l-1-7 12-10v-7l-1-2v-6l4-4z" fill="#ECABBC"/>
<path transform="translate(1462,915)" d="m0 0h10l10 5 7 9 2 5 1 18 8 13 5 16-1 4-10 4-4-2-5-17-2-3h-9l-5 1 1 9 5 15-1 3-9 3h-5l-14-41-10-31 1-4z" fill="#ECABBC"/>
<path transform="translate(348,1288)" d="m0 0 3 3-3 18-7 13 3-4 5-5 3-1 3-16v-7l5 2 5 6 7 8 7 6 9 5 13 5 1 2-4 1-2-1 1 3 10 2v3l-7 2-1 3-6 5-15 30h-3v-2h-2l-3-5v-2l-4-1-2-4-20-2h-3l-5-4-4-2 1-3h8l-3-4-4-1-7-2v-2l7-1v-2l5-1-8-1v-2h3l-1-3-6 1 1-4 2-4h5l-2 1v3h3l2-7 3-5 5-18z" fill="#9A3954"/>
<path transform="translate(1453,692)" d="m0 0 8 1 8 5 8 4 9 10 4 11 6 38 6 27 10 37 2 14v15l-3 14-5 12-5 7-10 8-7 4-4 2-12 1-7-2-1-2-7-1 4-2 10-3 10-5 4-3h2l2-4 6-8 4-10 2-10v-20l-2-17-6-25-7-26-7-44-3-10-5-9-5-5-2-1h-9l-5 3-4 4 2-5 6-4z" fill="#85354E"/>
<path transform="translate(1658,567)" d="m0 0 4 1 7 8 7 9 8 11 9 12 9 6 16 8 15 7 11 5 8 2 4 2 3 5-1 5-8 9-6 11 1 5 5 4 15 9 15 10 12 9 10 9 8 8 11 15 10 21-1 2-2-2-3-7-10-13-12-14-9-10-10-10-17-12-27-15-7-2-2 2-2-1v-2h-3v-8h3v-4h2l2-4h2l2-6 2-1-5-2-3-6-4-1-16-6-12-8-17-17-7-8-2-3v11l-2 7h-1l-2 8h-2l1 3h-2l1-10 1-4v-15l-6-17-1 9v7l-6 12h-1l1-29 2-13z" fill="#85354E"/>
<path transform="translate(1151,823)" d="m0 0h7l9 6 6 8 6 13 4 13 2 11v11l-4 11-4 5h-11l-5-2-4-5-8-16-7-20-2-12v-10l4-8 4-4z" fill="#480A1E"/>
<path transform="translate(1531,890)" d="m0 0 4 2 4 11 5 15 1 5v9l-6 12 1 9 5 16-1 4-7 2h-6l-7-20-2-7-11-2-5-5-6-12-7-22v-4l13-4 4 8 7 21 3 5 6-1 3-3-2-10-5-14-1-11z" fill="#ECABBC"/>
<path transform="translate(1333,955)" d="m0 0 4 1 2 6v7l-11 10-4 7-1 6 9-2 7-3h5l4 8v6l-5 3-10 3-3 3 5 5 5 2 16 1 4 10-1 5-2 1h-16l-10-3-10-6-8-9-5-12-1-4v-12l4-13 7-11 10-7z" fill="#ECABBC"/>
<path transform="translate(1205,997)" d="m0 0 2 1 4 14-10 7-5 7-1 7 3 1 14-4h4l3 8v7l-15 5-2 1 1 4 5 4 10 2 10 1 2 5v9l-1 1h-17l-12-4-9-6-7-8-5-11-1-5v-10l2-10 6-12 8-8z" fill="#ECABBC"/>
<path transform="translate(1418,927)" d="m0 0 5 1 3 8v5l-11 10-4 8-1 5 11-3 10-2 3 6 1 8-6 3-12 4v3l9 6 16 1 4 6 1 9-2 1h-15l-9-2-10-5-3-2v-2l-4-2-6-10-3-9-1-13 3-12 7-11 7-7z" fill="#ECABBC"/>
<path transform="translate(1364,831)" d="m0 0h10l6 4 5 6 4 10 3 16v16l-4 10-2 2-5 1-11-3v-2h-2l-7-10-5-10-3-11v-14l3-9 5-5z" fill="#480A1E"/>
<path transform="translate(1374,742)" d="m0 0 5 2 5 5 3 9 8 29 2 13 4 12 2 5 3 1 6 9 5 8 9 20 4 12 1 6v22l-3 10-4 7h-2l-2 4h-2v2l-9 6-14 5-13 2-13-4v-1l15-1h3l1-2 3-1 2-2 10-6 6-5 6-9 3-9 1-7v-11l-3-22-2-5-1-4-3-3-4-11-11-16-2-4h-2l-4-8-3-13-2-11-5-22z" fill="#85354E"/>
<path transform="translate(1556,1087)" d="m0 0h3l-1 3-23 12-12 7-16 8-23 12-22 11-20 9-27 11-30 13-25 10-48 19-30 11-37 12-20 7-36 11-10 2-1-4 7-3 7-2 27-9 17-5 8-3 9-2 9-3 10-4 16-6 37-13 28-11 40-16 42-18 26-13 25-11 19-9 13-7 19-10z" fill="#883750"/>
<path transform="translate(845,1363)" d="m0 0h3l8 19 1 5h2v10l-5 5-12 4-17 3h-10l-8-25 1-5 22-8 9-3z" fill="#47091D"/>
<path transform="translate(783,1338)" d="m0 0h5l5 14 1 5-8 4-6 2 10-2 4-1 3 3-4 4-35 14h-5l-4-9-6-18v-4l9-1 1 2 2-4 15-5z" fill="#45081C"/>
<path transform="translate(193,1238)" d="m0 0 4 2 5 6 2 1v2l4 2v2l4 2 10 8 15 10 16 10 15 6 31 13 21 7 7 2 8 1 3-6h2v-5l3-1v-27l1-2h2l4 11 2 2 1 4 2-5 5 3 6 8 8 7 5 5 7 3 9 4 9 2 2 2-12 1-2 1-10-5-8-6-6-7-4-4-4-5-5-3 1 7-2 11-2 5-5 4h-2l-2 6h-3l7-13 3-18-1-2-4 11-4 14-5 10h-3v-3l-3-1-1 4-2 4 2 1h-3l-2-3v-7l-5-5-18-7-28-10-25-12-18-10-13-10-12-9-12-12-1-5z" fill="#9A3A55"/>
<path transform="translate(1233,778)" d="m0 0 9 4 4 4 5 16 6 36 6 22 12 35 8 24 1 2-5-2-2-5-5-1-5-10-10-30-5-14-7-22-4-21-2-18-5-16z" fill="#85354E"/>
<path transform="translate(1660,582)" d="m0 0 3 3 5 15v15l-3 14 1-3h2l1-9 2-2 1-4 3 1-1 8-5 13-10 17-7 10-2 2-5-2-3-2-2 6-5 1-2 2v2l-4 1-1 2-2-1v2l-2-1 13-18 3-1 1-7 2-10 6-16 3-12 2 1 5-10v-10z" fill="#87354E"/>
<path transform="translate(1356,947)" d="m0 0h6l5 14 13 40 3 9 8-3 5 1 1 3v7l-5 3-13 5h-5l-4-11-20-60 1-5z" fill="#ECABBC"/>
<path transform="translate(1335,758)" d="m0 0h8l8 6 4 7 3 12v16l-2 7-3 3-10-1-5-5-5-8-5-15v-14l4-6z" fill="#85354E"/>
<path transform="translate(1154,1014)" d="m0 0 5 1 17 51 2 9-1 10-4 7-8 5h-5l-2-3-1-7 4-4h2v-2h2l-5-19-12-36-2-9z" fill="#ECABBC"/>
<path transform="translate(1672,599)" d="m0 0 5 5 15 16 8 8 11 7 16 6 2 2v4l-7-1-22-8-4-1h-7l-17 12-15 10-4 2 1-5 8-13 8-14 4-13-2-10z" fill="#FAEBEF"/>
<path transform="translate(1151,823)" d="m0 0h7l9 6 6 8-1 2-5-7-6-2-2 5-3 7v19l7 20 6 16 1 2h8l-1 2h-11l-5-2-4-5-8-16-7-20-2-12v-10l4-8 4-4z" fill="#86354E"/>
<path transform="translate(1394,712)" d="m0 0h8l6 3 2 4 11 4 4 5 6 20 5 21 6 16 6 9 2 1 11 1v1l-10 1-9-3-9-9-7-12-8-24-6-21-5-10-6-4h-7l-9 5-3 6v7l6 16 12 22 4 9-1 3-8-17-10-17-4-9-1-5v-11l3-6 8-5z" fill="#86354E"/>
<path transform="translate(1341,730)" d="m0 0h16l11 6 6 5 6 21 5 23 2 11 4 10v2h2l10 14 5 8 3 11 3 1 3 12 3 19v11l-2 10-4 9-7 9-10 7-4 3-1 1-9 3h-18l-13-4-6-5-3-6-3-15-1-14-4-17-8-26-8-21-8-16-7-11-4-5-7-13-1-11 1-11 2-4 8-4 8-2 10-4 8-4zm2 1-15 4-6 3-9 4-11 4-5 3-2 3v18l4 9 5 10 6 8 9 17 9 24 9 29 3 14 2 19 4 15 8 6 11 3h11l12-3 16-9 7-8 5-10 2-7v-14l-3-16-7-20-9-17-8-10-4-6-3-14-5-27-5-15-6-9-9-6-7-2z" fill="#9B3A55"/>
<path transform="translate(1188,930)" d="m0 0 5 1 6 9 7 14 3 4-1 2-7-10-4-8v-2h-2l7 24 3 11 1 12-3 5-9 4h-7l-7-5-10-1-7-6-2-4 1-3 5 8 4 3h7l7-2 6-7v-7l-5-19-2-8v-11z" fill="#88354E"/>
<path transform="translate(1727,679)" d="m0 0 1 3-8 21-4 21-1 8v18l1 10-5-5-6-11-10-14-14-15-12-9-19-10-15-5-23-5 1-3 6-1 24 6 19 7 11 6 10 8 7 8 13 16 4 5 2 1 1-13 3-23 4-12 7-10z" fill="#F7DFE5"/>
<path transform="translate(1266,754)" d="m0 0h7l7 4 7 7 11 33 5 18 4 8-1 10 3 7 3 12 9 25 3 9 4 14 5 23 1 5v8l-6 3-18 5-4 4h-2l-1 3h-3l-1 2h-7l-16-3-14-6-1-2 6 2 11 4h10l20-6 21-6 2-1v-8l-5-22-7-25-16-47-5-19-5-23-8-23-7-9-6-3-9 1-5 4-2 4v11l3 10 11 28 6 15-1 3-13-30-4-9-5-14v-15l3-6 7-4z" fill="#993954"/>
<path transform="translate(1364,831)" d="m0 0h10l6 4 4 4-1 2-5-4-4 1-5 7-2 6v14l2 14 5 8 5 5h6l4-3-2 5-6 2-11-3v-2h-2l-7-10-5-10-3-11v-14l3-9 5-5z" fill="#85354E"/>
<path transform="translate(540,826)" d="m0 0 3 1-11 7-6 1v2l-23 12-40 20-24 14-28 15-17 10-15 10-18 10-11 7-9 7-12 8-4 3-2-1 11-9 21-14 19-12 21-13 19-12 27-16 28-15 19-9 19-10 8-6 6-5v-2l6-1v3z" fill="#883951"/>
<path transform="translate(355,1289)" d="m0 0 5 2 5 6 7 8 7 6 9 5 13 5 1 2-4 1-20-7h-10l-4 2-4 4-6 2-8 6-5 1v-4l5-6 7-15 2-12z" fill="#EDAFBF"/>
<path transform="translate(1715,663)" d="m0 0h5l1 3-5 12-10 19-5 8-4-1-5-7-3-5-10-6-7-4 1-2h12l11 2 5-3 8-10z" fill="#FCF7F8"/>
<path transform="translate(193,1238)" d="m0 0 4 2 5 6 2 1v2l4 2v2l4 2 10 8 15 10 16 10 15 6 31 13 21 7 11 3-4 2 1 4-5-1-8-5-42-15-25-12-18-10-13-10-12-9-12-12-1-5z" fill="#883750"/>
<path transform="translate(894,1201)" d="m0 0 3 4 6 15 4 13v6l-19 7-20 7-3 2 3 14 6 17 4 10-1 5-11 5-24 10-2-1 12-6 14-6 4-2v-3h2v-2h-2l-1-5-2-3-2-10h2l-1-7-3-13 1-5 8-4 14-5h3v-2l2-2 1-4h-2v-6l3 1-1-6-1-2 2-3h2v-5l2-1v2h2l-5-12z" fill="#85354E"/>
<path transform="translate(887,703)" d="m0 0h5l-2 2-15 4-21 7-35 10-26 7-8 1v2l-36 12-20 7-10 3-4 2-12 3 1-4 11-3h5l1-3 10-2 1-3 57-18 59-17 27-7z" fill="#8A3851"/>
<path transform="translate(1724,974)" d="m0 0 3 1-5 5-11 10-17 13-14 11-10 7-17 12-15 10-42 26-23 13-8 4h-2v-3l5-3 9-6 29-16 24-15 9-6 17-11 9-6 5-1 2-4 8-6h4v-2l8-7 8-6 6-3 3-4h2l2-4 8-7h2z" fill="#893851"/>
<path transform="translate(1217,771)" d="m0 0h8l6 4 3 5 4 11 3 14 2 17 4 18 6 19 4 11 11 33 5 10 5 1 2 5 6 2 7-1 3-3 2-6 1-10h1v11l-3 8-4 3h-11l-5-2-7-8-9-21-12-35-7-25-8-45-5-10-4-3h-9l-8 6-3 10 1 13 6 20 12 31 1 5-3-4-12-30-3-10v-3h-2l-2-12v-15l4-9 4-3z" fill="#9A3954"/>
<path transform="translate(1741,660)" d="m0 0h2l-2 13 16 8 20 13 14 10 12 11 7 7 11 15 10 21-1 2-2-2-3-7-10-13-12-14-9-10-10-10-17-12-27-15-2-1v-2l-5-1 2-6z" fill="#883851"/>
<path transform="translate(1272,1210)" d="m0 0h7v4l-63 21-34 10h-3l-1-4 7-3 7-2 27-9 17-5 8-3 9-2 9-3z" fill="#86364F"/>
<path transform="translate(1344,764)" d="m0 0 5 1 4 5 4 17v12l-3 7-1 1h-5l-4-8-3-15-1-12 3-7z" fill="#45081C"/>
<path transform="translate(287,979)" d="m0 0 2 1-7 7-6 5-8 7-14 13h-2l-2 4-11 9-5 5-2 3h-2l-2 4-8 10-2 4-5 5-1 2h-2l-2 4-9 14-5 6-4 7-5 10-8 18-3 4-4 14-3 10-1 9h-1v-10l5-19 8-21 11-20 8-13 14-19 4-5h2l2-4 7-8h2l2-4 23-23 8-7 10-9 14-11z" fill="#8E3E57"/>
<path transform="translate(538,774)" d="m0 0 5 3 2 7 6-3 7 1 2 2v3l3 1v7l-4 4h-10l-2-2v-4h-4l-1-3-4 1v-2l-4 3-5-1-2-5 2-9 2-2z" fill="#83324B"/>
<path transform="translate(1341,730)" d="m0 0h16l11 6 6 5 2 6-1 4-7-11-9-6-7-2h-9l-15 4-6 3-9 4-11 4-5 3-1 2v18l4 9 5 10 6 8 9 17 9 24 9 29 3 14 2 19 3 15-2-1-4-18-1-14-4-17-8-26-8-21-8-16-7-11-4-5-7-13-1-11 1-11 2-4 8-4 8-2 10-4 8-4z" fill="#923852"/>
<path transform="translate(1819,865)" d="m0 0 1 2-8 14-8 12-20 28-6 7h-2l-2 4-29 29-16 14-2-3 32-32 7-6 7-8 5-6 5-5 16-20 9-13 1-3h2l1-4z" fill="#893952"/>
<path transform="translate(1453,692)" d="m0 0 8 1 8 5 3 3 2 1 2 7 2 6 1 8v3l4 30 5 21 8 30 3 18 1 10v12l-2 14-5 13-6 9h-2v2l-12 7-5 2-4-1 9-4 8-5h2l2-4 6-8 4-10 2-10v-20l-2-17-6-25-7-26-7-44-3-10-5-9-5-5-2-1h-9l-5 3-4 4 2-5 6-4z" fill="#9B3A55"/>
<path transform="translate(1394,712)" d="m0 0h8l6 3 3 6v2l4 2v5l3 1 1 9 4 16 6 18 6 10 2 1 1-3 8 11 4 2 11 1v1l-10 1-9-3-9-9-7-12-8-24-6-21-5-10-6-4h-7l-9 5-3 6v7l6 16 12 22 4 9-1 3-8-17-10-17-4-9-1-5v-11l3-6 8-5z" fill="#9A3954"/>
<path transform="translate(389,1337)" d="m0 0 4 1-1 5-14 28h-3v-2h-2l-3-5v-2l-4-1-2-4-8-2v-3l4-1h17l9-11z" fill="#EDB1C1"/>
<path transform="translate(566,891)" d="m0 0h2l5 13-1 3-2-6h-3v-2l-8-2-9 3-10 3-24 10-5 2h-4v2l-7 3-4 1-15 5-5 1v2l-9 3-5 3h-4l-6 4-4 1-11 3-1 2v-2l-3 1 2 10 1 7-2-3-4-12 1-4 19-7 32-12 12-5 21-8 40-15z" fill="#85354E"/>
<path transform="translate(1242,941)" d="m0 0 5 2 8 7 4 8 1 10-5 4-3 3-5 1v2h-8l-4-2-1-3 7-2 2-4h3l1-15 1-2h-2l-3-7z" fill="#85354E"/>
<path transform="translate(1305,838)" d="m0 0 3 1 5 16 8 23 3 9 4 14 5 23 1 5v8l-6 3-18 5-4 4h-2l-1 3h-3l-1 2h-7l-16-3-14-6-1-2 6 2 11 4h10l20-6 21-6 2-1v-8l-5-22-7-25-14-41z" fill="#9B3A55"/>
<path transform="translate(1148,824)" d="m0 0 3 1-6 5-3 7v13h5l2 7 2-4 3 5 1 8-1 5 1 5 3 8v3l3 1v2l1 5h2l3 4h11l-1 2h-11l-5-2-4-5-8-16-7-20-2-12v-10l4-8z" fill="#9A3954"/>
<path transform="translate(352,1368)" d="m0 0 7 1 2 7 4 1 4 4 1 3 5 2 4 4v4l2 1-1 2h4l1-15 2-5 2 4v32l-4 2-8-14-2-5-10-13v-2h-3v-2l-4-2-6-7z" fill="#9C3E58"/>
<path transform="translate(762,1340)" d="m0 0 2 1-1 2 4-3 8 1v1l-18 5-3 2-1 5h-1v-5l-9 1 5 16 5 14 11-1v3l-5 2-3 1-6-4-5-5-10-26-1-3-5-1v-2l-5-1-1-2h6l6 2v-2h2l2 6 5 1 8-2 2-3 6-1z" fill="#893952"/>
<path transform="translate(1463,930)" d="m0 0 7 1 5 5 1 2v7l-4 6-4 2h-6l-4-7-1-4v-9z" fill="#521025"/>
<path transform="translate(1158,793)" d="m0 0 13 1 13 5 11 8 4 4 6 16 4 13 3 22v53h-1l-1-6-1-50-2-16-4-15-6-11-6-8-9-8-9-4-5-1h-14l-15 4-6 1 2-2 17-5z" fill="#983954"/>
<path transform="translate(1660,582)" d="m0 0 3 3 5 15v15l-5 16-11 21-4 4 3-12 6-14 4-16 1-7v-10z" fill="#F8E6EB"/>
<path transform="translate(1364,831)" d="m0 0h10l6 4 4 4-1 2-5-4-3-3-2-1h-8l-5 2-4 8v17l4 12 3-2 3 3 1 6h2l5 8 5 5h6l4-3-2 5-6 2-11-3v-2h-2l-7-10-5-10-3-11v-14l3-9 5-5z" fill="#983954"/>
<path transform="translate(505,761)" d="m0 0h4v2l-5 2-1 4 2 1-4 2-1 2-2-3h-2l-1 7-1 4 3 9 3 10 8 16 2 5-5-1-5-6-8-19-2-15 3-9 3-4 5-5z" fill="#82364D"/>
<path transform="translate(783,732)" d="m0 0 3 1-2 1 1 2-36 12-20 7-10 3-4 2-12 3 1-4 11-3h5l1-3 10-2 1-3z" fill="#8D3751"/>
<path transform="translate(921,1127)" d="m0 0 2 4 14 40-1 5-10 3-3-1 3-2-1-3-2 1-1-5 4-2-1-13h2l-4-16-2-5z" fill="#85354E"/>
<path transform="translate(1335,758)" d="m0 0h8l8 6 4 7 3 12v16l-2 7-3 3-10-1-5-5-5-8-5-15v-14l4-6zm3 1-5 2-3 4-1 8 4 15 3 1 3 9 3 1 2 7 2 1h7l3-4 1-4v-12l-4-17-5-7-7-4z" fill="#993954"/>
<path transform="translate(1718,695)" d="m0 0 2 3-1 8-4 26v18l1 10-5-5-3-5v-5l1-1 2-16 3-23z" fill="#FBF4F6"/>
<path transform="translate(1727,679)" d="m0 0 1 3-7 18-3-4-3 9-4 28-1 11-3 3-12-17-1-2h2l1-2 10 12 2 1 1-13 3-23 4-12 7-10z" fill="#ECABBC"/>
<path transform="translate(1398,945)" d="m0 0 1 2-3 8-1 11 2 12 6 12 5 5v2l5 2 11 5 6 1h17l-3-11-2-3-16-1-10-7 1-4 2 1-1 3 5 2 5 3 15 1 4 6 2 10-2 2-4 1h-10l-12-2-10-5-8-7-6-9-3-7-1-5v-16l4-11z" fill="#913751"/>
<path transform="translate(1e3 1287)" d="m0 0h6v1l-41 10-23 5-20 2v-2l6-2 16-3 48-10z" fill="#8A3751"/>
<path transform="translate(888,1310)" d="m0 0h7l-3 2-6 1 3 5 2 2 2-3-1 10-3 5-6 5-10 4-15 4-1-3 12-4 16-8 1-3h2l-1-3-2-1-1-8-2-1 1-3z" fill="#883750"/>
<path transform="translate(167,1189)" d="m0 0 3 1 3 12 4 6 2 7 7 10 7 12-5 1-6-8-6-10-8-24z" fill="#8B3C55"/>
<path transform="translate(287,979)" d="m0 0 2 1-7 7-6 5-8 7-14 13h-2l-2 4-11 9-5 5-2 3h-2l-2 4-6 7-5 3 2-4 7-8h2l2-4 23-23 8-7 10-9 14-11zm-72 68 2 1-2 1z" fill="#8B3B54"/>
<path transform="translate(1266,754)" d="m0 0h7l-1 2-9 2-5 4-2 4v11l3 10 11 28 6 15-1 3-13-30-4-9-5-14v-15l3-6 7-4z" fill="#933852"/>
<path transform="translate(341,1300)" d="m0 0h1v12l-6 12h-3v-3l-3-1-1 4-2 4 2 1h-3l-2-3v-8h4l-2-5 9-1 3-6h2v-5z" fill="#92415A"/>
<path transform="translate(592,725)" d="m0 0 1 2h2v3h2l1 5-4 3h-3v2l-4-1h-2l-4 2-3-7-2-3-4-2 3-1 4 2h8z" fill="#702D42"/>
<path transform="translate(1672,611)" d="m0 0 3 1-1 8-5 13-6 10-4 1-1 3h-3l2-6 7-15 1 3 1-3h2l1-9 2-2z" fill="#8A354F"/>
<path transform="translate(1394,712)" d="m0 0h8l6 3 2 5-4-2-5-3h-7l-9 5-3 6v7l6 16 12 22 4 9-1 3-8-17-10-17-4-9-1-5v-11l3-6 8-5z" fill="#913751"/>
<path transform="translate(1217,771)" d="m0 0h8v2l-9 1-8 6-3 10 1 13 6 20 12 31 1 5-3-4-12-30-3-10v-3h-2l-2-12v-15l4-9 4-3z" fill="#963853"/>
<path transform="translate(537,1107)" d="m0 0h2l11 29 7 19v6l-2-1-2-6-2-2-2-10-2-5v-3l-3-1-2-10-4-3v-2h-2v-9z" fill="#8C3650"/>
<path transform="translate(1219,927)" d="m0 0h2v2l9 3 7 4 5 4 4 6v4h2l-1 15-1 2-4 2-3 3-2 1h-10l-3-2h9l7-3 4-5 1-2-1-10-5-9-10-7-7-3-3-3z" fill="#993954"/>
<path transform="translate(1308,943)" d="m0 0m-47 0 6 2 11 4h10l17-5h3l-2 5h-2l-1 3h-3l-1 2h-7l-16-3-14-6z" fill="#993954"/>
<path transform="translate(808,800)" d="m0 0 3 1-9 3-1 2-7 4-7 3-16 4-18 4 2-2z" fill="#85354E"/>
<path transform="translate(1331,1007)" d="m0 0 2 1-1 4 5 2 8 2 12 1 4 9v7l-2 2-5 1h-10l-10-2-10-5-8-7 1-2 8 7 11 5 5 1h16l2-1-1-7-2-7-8 1-11-2-6-4-2-4z" fill="#903751"/>
<path transform="translate(220,1044)" d="m0 0v3l-2 4-5 5-1 2h-2l-2 4-9 14-10 12-1-2 9-15 13-18 8-7z" fill="#8A3952"/>
<path transform="translate(387,1377)" d="m0 0 2 4v23l-1 7-3 1-2-5v-10l2-15z" fill="#EDB2C2"/>
<path transform="translate(313,1352)" d="m0 0 9 1 3 2 1-3 2 1 1 3 3 1-1 3-7 1-14-2-4-2v-4z" fill="#9F435D"/>
<path transform="translate(1453,692)" d="m0 0 8 1 8 5 3 3 2 1 2 7 2 6 1 8v3 7l-2-1-4-20-6-11-5-5-2-1h-9l-5 3-4 4 2-5 6-4z" fill="#983954"/>
<path transform="translate(348,1288)" d="m0 0 3 3-3 18-8 14-4 1 2-7 3-5 5-18z" fill="#ECABBC"/>
<path transform="translate(633,684)" d="m0 0h9l-5 5-18 7-8 1 5-6 10-5z" fill="#88354E"/>
<path transform="translate(1272,1210)" d="m0 0h7v4l-28 9h-3v-4l9-4 9-3z" fill="#661F36"/>
<path transform="translate(350,1312)" d="m0 0 1 2-6 11-7 7h-7v-2h3l-1-3-6 1 1-4 2-4h5l-2 1v3l9-2 3-6z" fill="#A85069"/>
<path transform="translate(629,1337)" d="m0 0h36v3l-9 1h-47v-1l9-1v-1z" fill="#85354E"/>
<path transform="translate(1724,974)" d="m0 0 3 1-5 5-11 10-17 13-10 8-1-2 5-6 12-9 6-3 3-4h2l2-4 8-7h2z" fill="#893851"/>
<path transform="translate(1165,644)" d="m0 0 4 1-1 1-25 4-11 2-11 1-2 1-17 2-8 3-9-1v-1l28-5z" fill="#92415A"/>
<path transform="translate(1657,571)" d="m0 0 1 3 3-1v2h-3v8l-1 5 1 7 1 4-3 8-3 4 1-29 2-10z" fill="#57152A"/>
<path transform="translate(1663,582)" d="m0 0 3 1 2 3 3 10v22h-1l-2 8h-2l1 3h-2l1-10 1-4v-19l-4-12z" fill="#4D0D22"/>
<path transform="translate(605,1270)" d="m0 0 3 4 3 11h2l1 3 4 2 1 1h2l1-3 6-1h4l14-5 3 1-28 11-8 1-3-9-5-13z" fill="#85354E"/>
<path transform="translate(496,791)" d="m0 0h1l3 10 8 16 2 5-5-1-5-6-4-9-1-7-1-6z" fill="#88364F"/>
<path transform="translate(858,1392)" d="m0 0h1l-1 7-6 4-8 2v-2l-7-1 2-3 8-3 6-2h5z" fill="#873750"/>
<path transform="translate(391,1343)" d="m0 0 3 2-2 4 2 1-1 7h-2l1 6h-2l1 6h-3l-3-6 2-5-4 3 1-4z" fill="#9A3954"/>
<path transform="translate(749,745)" d="m0 0h3v2l-23 8-10 3-4 2-12 3 1-4 11-3h5l1-3 16-4z" fill="#9E4962"/>
<path transform="translate(963,848)" d="m0 0 4 1-14 5-3 3h-5l-1 2-6 1-2-1v2l-9 2-4-2 1-2 11-2z" fill="#85354E"/>
<path transform="translate(1573,630)" d="m0 0 13 1 25 4 4 2v2l-31-4-11-3z" fill="#9B5368"/>
<path transform="translate(1346,915)" d="m0 0 8 5 11 3h11l16-4-1 5-4 1-9 1h-13l-13-4-6-5z" fill="#973953"/>
<path transform="translate(1832,767)" d="m0 0h2l5 18v24l-2 10-2-1 1-6v-24l-4-17z" fill="#93425B"/>
<path transform="translate(372,918)" d="m0 0 2 1-5 5-15 8-10 8-15 10-4 3-2-1 11-9 21-14z" fill="#92425A"/>
<path transform="translate(1294,754)" d="m0 0h1l1 16 4 9 5 10 6 8v2l-3-1-4-7-4-5-7-13-1-11 1-7z" fill="#993954"/>
<path transform="translate(816,722)" d="m0 0 1 2h-2l-1 3-16 5-13 3-3-1 4-1v-2z" fill="#9B4860"/>
<path transform="translate(654,687)" d="m0 0 7 2v2l6 3v2h-6l-4 1h-4v-2h-3l-1-6z" fill="#9D5168"/>
<path transform="translate(779,1372)" d="m0 0 4 2-1 3-20 7-4-1 6-1 1-5z" fill="#7A2E46"/>
<path transform="translate(1299,901)" d="m0 0h1v11l-3 8-4 3h-11l-5-2-7-8-1-3 3 1 2 2 4 1 2 5 6 2 7-1 3-3 2-6z" fill="#993954"/>
<path transform="translate(801,1383)" d="m0 0h2l3 9 4-1 4 11 2 8-4-2-6-12-5-11z" fill="#752940"/>
<path transform="translate(1696,726)" d="m0 0 5 5 6 7h3v6l-3 3-12-17-1-2h2z" fill="#F0BFCC"/>
<path transform="translate(287,979)" d="m0 0 2 1-7 7-6 5-8 7-14 13-2-1 10-11 8-7 16-13z" fill="#904059"/>
<path transform="translate(1660,582)" d="m0 0 3 3 5 15v15h-1l-1-13-3 12h-1v-17z" fill="#ECABBC"/>
<path transform="translate(762,1340)" d="m0 0 2 1-1 2 4-3 8 1v1l-18 5-3 2-1 5h-1v-5l-8 1 3-3 5-1 2-3 6-1z" fill="#85354E"/>
<path transform="translate(1702,678)" d="m0 0v3l-3 3h-7l-3-1h-11l11 6 4 4-1 4-3-5-10-6-7-4 1-2h12l11 2 5-3z" fill="#ECABBC"/>
<path transform="translate(1080,1267)" d="m0 0 1 4-14 4-14 2 4-4 21-5z" fill="#8E3D56"/>
<path transform="translate(1344,730)" d="m0 0h13l11 6 6 5 2 6-1 4-7-11-9-6-7-2-8-1z" fill="#973953"/>
<path transform="translate(557,722)" d="m0 0 6 2 5 2-2 2h-3v2l6-1 1 2-5 2-7-2-1-3h-2l1-4z" fill="#7E2F47"/>
<path transform="translate(963,1103)" d="m0 0 2 4-1 5-21 8-5 2-3-1 8-4 10-4 5-5 3-2v2h2z" fill="#85354E"/>
<path transform="translate(505,761)" d="m0 0h4v2l-5 2-1 4 2 1-4 2-1 2-2-3h-2l-1 7-1-2h-2l2-6 7-7z" fill="#974961"/>
<path transform="translate(1266,754)" d="m0 0h7l-1 2-9 2-5 4-2 4-1 11-2 3v-15l3-6 7-4z" fill="#913752"/>
<path transform="translate(704,733)" d="m0 0 2 4 3 9-1 4-14 4-5 1v-2l16-6v-5h-2z" fill="#88354F"/>
<path transform="translate(605,708)" d="m0 0 2 1v8l-8 3-4 2 2-5 5-8z" fill="#7C3148"/>
<path transform="translate(1507,943)" d="m0 0 4 2 11 3 5 13 4 11v3h6l-3 2-4-1-3-7-6-18-8-3-5-3z" fill="#8E3751"/>
<path transform="translate(1672,611)" d="m0 0 3 1-1 8-5 13-2-1 2-15 2-2z" fill="#943852"/>
<path transform="translate(939,1299)" d="m0 0h10l-2 3-21 3h-3v-2l6-2z" fill="#93425A"/>
<path transform="translate(316,1308)" d="m0 0 15 4-4 2 1 4-5-1-8-5z" fill="#72273E"/>
<path transform="translate(1819,865)" d="m0 0 1 2-8 14-7 11-2-1 2-5 4-7h2l1-4z" fill="#8D3C55"/>
<path transform="translate(693,706)" d="m0 0 4 4 4 11-1 3-3-1-5-13-1-2h2z" fill="#85354E"/>
<path transform="translate(700,1347)" d="m0 0 3 2v2l2 1-10 5-5-1 1-6h2v2h3l1-3v2l2-1z" fill="#8A3A52"/>
<path transform="translate(786,1336)" d="m0 0 3 1 3 8 4 4 1 6-3 1-6-15v-3l-10 3-3-1 7-3z" fill="#85354E"/>
<path transform="translate(1704,992)" d="m0 0 1 3-12 9-9 7-1-2 5-6 12-9z" fill="#8C3C54"/>
<path transform="translate(1266,1212)" d="m0 0m-1 1m-3 1h3v2l-5 2v2l-9 3h-3v-4l9-4z" fill="#762A42"/>
<path transform="translate(537,1107)" d="m0 0h2l4 11v5l-5-3v-2h-2v-9z" fill="#88354F"/>
<path transform="translate(1344,759)" d="m0 0 6 4 5 8 3 12v16h-1l-2-18-4-13-3-3v-2l-4-2z" fill="#963853"/>
<path transform="translate(1715,663)" d="m0 0h5l1 3-5 12-10 19-3 3 1-4 14-28 1-4-5 1z" fill="#ECABBC"/>
<path transform="translate(410 1e3)" d="m0 0h2v2h-3v2l-4 1-2 1 9 25-1 3-10-27 1-4z" fill="#85354E"/>
<path transform="translate(754,741)" d="m0 0h3v2l-3 1 1 2-9 1-11 4-3-1v-2z" fill="#7E2F48"/>
<path transform="translate(533,723)" d="m0 0 3 1v3l-10 4-9 1 4-4z" fill="#8B3B54"/>
<path transform="translate(683,1315)" d="m0 0 4 1 2 4-8 4-4-1v-4h2l1-2h3z" fill="#85354E"/>
<path transform="translate(1100,1262)" d="m0 0 3 2-1 3-9 2-5-1v-3z" fill="#903F58"/>
<path transform="translate(1660,584)" d="m0 0h1l2 13v10l-1 7h-1l-1-5v-10l-1-10z" fill="#9B3A55"/>
<path transform="translate(572,728)" d="m0 0 5 1 9 2-4 1v2h3v5l-4 2-3-7-2-3-4-2z" fill="#AA5F75"/>
<path transform="translate(352,1368)" d="m0 0 7 1 2 7h2l1 4-5-2-7-8z" fill="#ECABBC"/>
<path transform="translate(892,1309)" d="m0 0h5l1 2-3 3-3 7-6-5v-3l6-2z" fill="#511025"/>
<path transform="translate(1642,658)" d="m0 0 4 2 3 3-1 3-2 1h-6l-1-3z" fill="#F6DBE2"/>
<path transform="translate(313,1352)" d="m0 0 8 2 4 4-15-1-3-3v-1z" fill="#ECABBC"/>
<path transform="translate(1573,630)" d="m0 0 13 1 7 2 1 2h-10l-11-3z" fill="#9E5067"/>
<path transform="translate(1741,660)" d="m0 0h2l-2 8h-2v2h-2v3l3 1-2 1-5-2 2-6z" fill="#B55E76"/>
<path transform="translate(954,1296)" d="m0 0h14l-2 2-15 3-3-1-3-2z" fill="#8D3C55"/>
<path transform="translate(392,906)" d="m0 0m-2 1h2l-2 4-11 7-5 3-2-1 5-5z" fill="#8A3952"/>
<path transform="translate(722,754)" d="m0 0 4 1-11 5-12 3 1-4z" fill="#B4687E"/>
<path transform="translate(1246,956)" d="m0 0h1v9l-1 2-4 2-3 3-2 1h-10l-3-2h9l7-3 4-5z" fill="#973953"/>
<path transform="translate(887,703)" d="m0 0h5l-2 2-15 4-3 1h-10v-1z" fill="#913D56"/>
<path transform="translate(1680,1009)" d="m0 0h3l-2 4-8 6-4 2 2-5z" fill="#8A3952"/>
<path transform="translate(979,680)" d="m0 0 2 1-9 3-13 4-8 1v-2z" fill="#9D4F66"/>
<path transform="translate(311,961)" d="m0 0 2 1-8 7-12 9-4 1 5-5 13-10z" fill="#8D3E56"/>
<path transform="translate(232,1029)" d="m0 0 2 1-2 3h-2l-2 4-6 7-5 3 2-4 7-8h2l2-4zm-17 18 2 1-2 1z" fill="#994B63"/>
<path transform="translate(509,742)" d="m0 0h3l1 3 3 2v3l-5 2-4-1 2-3-1-5z" fill="#AC6177"/>
<path transform="translate(549,717)" d="m0 0 4 1 4 4-1 1-9 1-2-3 2-1v-2z" fill="#7D2F48"/>
<path transform="translate(633,684)" d="m0 0h9l-5 5-5 2-4-1 2-3 3-1z" fill="#95425B"/>
<path transform="translate(1114,1259)" d="m0 0h2v3l2 1-11 2v-2l-3 1 1-3z" fill="#94425B"/>
<path transform="translate(681,1334)" d="m0 0h2l2 12h2l1 8-4-3-2-11-3-1v-2h2z" fill="#994B62"/>
<path transform="translate(655,690)" d="m0 0 4 2-2 2h3l1-2 6 2v2h-6l-4 1h-4l1-5z" fill="#7B2D45"/>
<path transform="translate(337,1357)" d="m0 0h4l-1 4 3 1 1 4-11-4 1-3z" fill="#9C3C57"/>
<path transform="translate(1657,571)" d="m0 0 1 3 3-1v2h-3v8l-2 5h-1v-14z" fill="#480A1E"/>
<path transform="translate(648,1337)" d="m0 0h17v3l-13 1 2-1v-2h-6z" fill="#9D4760"/>
<path transform="translate(1127,1255)" d="m0 0 2 1v2l3 1-13 3 2-6h5z" fill="#9A4D64"/>
<path transform="translate(592,725)" d="m0 0 1 2h2v3h2l1 5-5 2 1-6-3-1-1-3z" fill="#B86E84"/>
<path transform="translate(788,1368)" d="m0 0 3 1 2 2-8 3 1 2-4 1v-2l-2-2 3-3z" fill="#8F4159"/>
<path transform="translate(707,1312)" d="m0 0 2 1-3 3h-8l2 9h-2l-2-7h-4v-2l12-2z" fill="#85354E"/>
<path transform="translate(810,1397)" d="m0 0 1 2h2l3 11-4-2-4-8z" fill="#89364F"/>
<path transform="translate(1160,1081)" d="m0 0h3v2l-4 2-1 3 2 8 5 1v1h-6l-2-3-1-11 1-2z" fill="#913752"/>
<path transform="translate(1331,1007)" d="m0 0 2 1-1 4 5 2 10 3v1h-7l-8-4-3-5z" fill="#943852"/>
<path transform="translate(1713,732)" d="m0 0h1l1 18 1 10-4-3z" fill="#ECABBC"/>
<path transform="translate(362,1357)" d="m0 0h2l3 4 3 1 2 5-4 1-2-1-2-5-2-2z" fill="#9B3A55"/>
<path transform="translate(1171,1243)" d="m0 0 2 1v2l2 1-11 2-1-4z" fill="#81314A"/>
<path transform="translate(823,720)" d="m0 0 3 1 2 2-9 3h-4v-2h2v-2z" fill="#913C55"/>
<path transform="translate(508,744)" d="m0 0 2 1-1 5-1 1 3 2-9 1 5-9z" fill="#6C233A"/>
<path transform="translate(1101,654)" d="m0 0h8l-4 2-6 1-5 2-9-1v-1z" fill="#87354E"/>
<path transform="translate(732,1329)" d="m0 0 2 3 2 9-1 2h-4v-5h2z" fill="#9C4E66"/>
<path transform="translate(802,1224)" d="m0 0h5l-1 2-11 4-5 3 2-4h2v-2z" fill="#8B3650"/>
<path transform="translate(496,791)" d="m0 0h1l3 14-3-1-3-8 1-3z" fill="#9F4F67"/>
<path transform="translate(340,939)" d="m0 0m-2 1 2 1-5 5-10 7-2-1 11-9z" fill="#92425B"/>
<path transform="translate(540,826)" d="m0 0 3 1-11 7-4-2 1-2z" fill="#86354E"/>
<path transform="translate(432,1332)" d="m0 0h9l7 2v1h-17z" fill="#8E3C55"/>
<path transform="translate(685,1096)" d="m0 0h6l1 2-7 1-5 2-1 9-2-3 1-7 4-3z" fill="#923852"/>
<path transform="translate(703,748)" d="m0 0 3 2-14 5h-3v-2z" fill="#893851"/>
<path transform="translate(809,1028)" d="m0 0 4 3-1 3-4-1h-8l2-2z" fill="#8D3650"/>
<path transform="translate(287,979)" d="m0 0 2 1-7 7-6 5-2-1 5-5z" fill="#92435B"/>
<path transform="translate(1803,891)" d="m0 0v3l-6 9-2-1 2-4z" fill="#87354E"/>
<path transform="translate(760,739)" d="m0 0h4l-1 4-6 2-4-1 4-1v-3z" fill="#9B455E"/>
<path transform="translate(1394,712)" d="m0 0h8l6 3 2 5-4-2-5-3v-2h-7z" fill="#913751"/>
<path transform="translate(916,1304)" d="m0 0h6l-1 2-16 3v-2z" fill="#93445C"/>
<path transform="translate(1652,642)" d="m0 0 3 4-6 10-1-2z" fill="#ECADBE"/>
<path transform="translate(776,1376)" d="m0 0m-3 1h3v2l-14 5-4-1z" fill="#521025"/>
<path transform="translate(389,1359)" d="m0 0 3 1v3h-2l1 6h-3l-1-6z" fill="#ECABBC"/>
<path transform="translate(393,1062)" d="m0 0 2 1-10 5-2 2v-2l-6 1 3-2z" fill="#85354E"/>
<path transform="translate(654,1013)" d="m0 0h8v2l-8 2h-3v-3z" fill="#8B3650"/>
<path transform="translate(701,724)" d="m0 0 2 3 1 5-3 1-3 6-2-2 4-7z" fill="#85354E"/>
<path transform="translate(761,1379)" d="m0 0h3v3l-5 2-3 1-2-1v-2z" fill="#9C4A62"/>
<path transform="translate(334,1335)" d="m0 0 2 2-2 3h-6l-1-3z" fill="#EEB6C4"/>
<path transform="translate(629,685)" d="m0 0 5 1-4 2-7 3-3-1 6-4z" fill="#511126"/>
<path transform="translate(556,783)" d="m0 0 4 1-1 6h-2l-1 3-2-1z" fill="#923852"/>
<path transform="translate(1298,745)" d="m0 0h4v2l-5 3-3 5-1-4 2-4z" fill="#953853"/>
<path transform="translate(1667,581)" d="m0 0h2l5 5v3l-1 2-6-7z" fill="#993954"/>
<path transform="translate(793,1370)" d="m0 0 3 1-3 3-9 1 3-3z" fill="#541428"/>
<path transform="translate(275,989)" d="m0 0m-1 1m-1 1v3l-9 9-2-1 9-10z" fill="#8A3952"/>
<path transform="translate(816,722)" d="m0 0 1 2h-2l-1 3-7 1-1-3z" fill="#9B405A"/>
<path transform="translate(1667,615)" d="m0 0h1l1 9-1 2h-2l1 3h-2l1-10z" fill="#5F1A30"/>
<path transform="translate(1672,611)" d="m0 0 3 1-1 8h-3z" fill="#A94E67"/>
<path transform="translate(888,1310)" d="m0 0h7l-3 2-10 2 1-3z" fill="#AA5D73"/>
<path transform="translate(1412,955)" d="m0 0 1 3-1 4 9-1-2 2-9 1 1-7z" fill="#903751"/>
<path transform="translate(349,933)" d="m0 0 2 1-7 6-5 2 2-4z" fill="#87354E"/>
<path transform="translate(1344,730)" d="m0 0h13l4 2v2l-17-3z" fill="#953853"/>
<path transform="translate(556,725)" d="m0 0 5 2 1 4h-4l-1-3h-2z" fill="#97475F"/>
<path transform="translate(1391,713)" d="m0 0h10v1l-10 2-4 3-2-1 4-4z" fill="#973953"/>
<path transform="translate(1719,700)" d="m0 0 1 3-3 14h-1v-9l2-7z" fill="#ECABBC"/>
<path transform="translate(655,687)" d="m0 0 6 2v5l-4 1-1-2 2-1-4-4z" fill="#A4586E"/>
<path transform="translate(769,1376)" d="m0 0h4v2l-9 3 1-4z" fill="#8E3750"/>
<path transform="translate(308,1306)" d="m0 0 5 1 3 1-1 3-6-1-2-2z" fill="#88354F"/>
<path transform="translate(525,833)" d="m0 0h5l-4 2v2l-3 2-4-1 3-1 1-3z" fill="#C3768B"/>
</svg>
